<svg width="144" height="24" viewBox="0 0 144 24" fill="none" xmlns="http://www.w3.org/2000/svg">
<path d="M0 23.6811V0.366777H6.24293V18.594H15.1411V23.6811H0Z" fill="#292929"/>
<path d="M36.864 11.992C36.864 15.915 35.9104 18.897 34.0033 20.9382C32.0962 22.9794 29.304 24 25.6267 24C22.0021 24 19.2205 22.9741 17.2818 20.9223C15.3536 18.8704 14.3895 15.8831 14.3895 11.9601C14.3895 8.07973 15.3483 5.11894 17.266 3.07774C19.1941 1.02591 21.9916 0 25.6583 0C29.3356 0 32.1225 1.01528 34.0191 3.04585C35.9157 5.07641 36.864 8.05847 36.864 11.992ZM20.9643 11.992C20.9643 16.4997 22.5184 18.7535 25.6267 18.7535C27.2072 18.7535 28.3768 18.206 29.1354 17.111C29.9046 16.0159 30.2892 14.3096 30.2892 11.992C30.2892 9.66379 29.8993 7.94684 29.1196 6.8412C28.3504 5.72492 27.1967 5.16678 25.6583 5.16678C22.529 5.16678 20.9643 7.44186 20.9643 11.992Z" fill="#292929"/>
<path d="M46.7175 10.0306H56.6903V22.5967C53.9824 23.5322 51.0059 24 47.7606 24C44.1992 24 41.4439 22.9581 39.4946 20.8744C37.5559 18.7907 36.5865 15.8193 36.5865 11.9601C36.5865 8.19668 37.6507 5.26777 39.7791 3.17342C41.9075 1.07907 44.8894 0.0318937 48.7247 0.0318937C50.1787 0.0318937 51.5485 0.1701 52.834 0.446512C54.13 0.722924 55.2574 1.07375 56.2162 1.499L54.2406 6.44252C52.5758 5.61329 50.7477 5.19867 48.7563 5.19867C46.9335 5.19867 45.5216 5.79934 44.5206 7.00066C43.5301 8.19136 43.0349 9.89767 43.0349 12.1196C43.0349 14.299 43.4827 15.9628 44.3783 17.111C45.2845 18.2485 46.5858 18.8173 48.2821 18.8173C49.2094 18.8173 50.0628 18.7269 50.8425 18.5462V14.8944H46.7175V10.0306Z" fill="#292929"/>
<path d="M79.4248 11.992C79.4248 15.915 78.4712 18.897 76.5641 20.9382C74.657 22.9794 71.8648 24 68.1875 24C64.5629 24 61.7813 22.9741 59.8425 20.9223C57.9143 18.8704 56.9502 15.8831 56.9502 11.9601C56.9502 8.07973 57.9091 5.11894 59.8267 3.07774C61.7549 1.02591 64.5524 0 68.2191 0C71.8964 0 74.6833 1.01528 76.5799 3.04585C78.4765 5.07641 79.4248 8.05847 79.4248 11.992ZM63.5251 11.992C63.5251 16.4997 65.0792 18.7535 68.1875 18.7535C69.768 18.7535 70.9376 18.206 71.6962 17.111C72.4654 16.0159 72.85 14.3096 72.85 11.992C72.85 9.66379 72.4601 7.94684 71.6804 6.8412C70.9112 5.72492 69.7575 5.16678 68.2191 5.16678C65.0898 5.16678 63.5251 7.44186 63.5251 11.992Z" fill="#292929"/>
<path d="M90.1949 23.6811H83.952V5.51761H78.3097V0.366777H95.8215V5.51761H90.1949V23.6811Z" fill="#292929"/>
<path d="M103.778 9.00997L107.761 0.366777H114.526L106.924 14.5754V23.6811H100.633V14.7668L93.031 0.366777H99.8271L103.778 9.00997Z" fill="#292929"/>
<path d="M130.195 7.78206C130.195 10.3867 129.431 12.4013 127.904 13.8259C126.386 15.2399 124.226 15.9468 121.424 15.9468H119.669V23.6811H113.426V0.366777H121.424C124.342 0.366777 126.534 1.00997 127.998 2.29635C129.463 3.58272 130.195 5.4113 130.195 7.78206ZM119.669 10.812H120.807C121.745 10.812 122.488 10.5462 123.036 10.0146C123.594 9.48306 123.873 8.7495 123.873 7.81395C123.873 6.24053 123.009 5.45382 121.281 5.45382H119.669V10.812Z" fill="#292929"/>
<path d="M144 23.6811H130.281V0.366777H144V5.42193H136.524V9.0897H143.447V14.1449H136.524V18.5462H144V23.6811Z" fill="#292929"/>
</svg>
