<svg width="24" height="24" viewBox="0 0 24 24" fill="none" xmlns="http://www.w3.org/2000/svg">
<path d="M7 13.225C6.65 13.225 6.35833 13.1083 6.125 12.875C5.89167 12.6417 5.775 12.35 5.775 12C5.775 11.65 5.89167 11.3583 6.125 11.125C6.35833 10.8917 6.65 10.775 7 10.775C7.35 10.775 7.64167 10.8917 7.875 11.125C8.10833 11.3583 8.225 11.65 8.225 12C8.225 12.35 8.10833 12.6417 7.875 12.875C7.64167 13.1083 7.35 13.225 7 13.225ZM7 17C5.61667 17 4.43767 16.5123 3.463 15.537C2.48767 14.5623 2 13.3833 2 12C2 10.6167 2.48767 9.43733 3.463 8.462C4.43767 7.48733 5.61667 7 7 7C8.03333 7 8.96267 7.279 9.788 7.837C10.6127 8.39567 11.2083 9.11667 11.575 10H20.8L22.8 12L19.6 15.15L17.875 13.875L16.075 15.2L14.3 14H11.575C11.2083 14.8667 10.6127 15.5833 9.788 16.15C8.96267 16.7167 8.03333 17 7 17ZM7 16C7.98333 16 8.825 15.7043 9.525 15.113C10.225 14.521 10.6667 13.8167 10.85 13H14.625L16.05 13.975L17.9 12.625L19.525 13.85L21.375 12L20.375 11H10.85C10.6667 10.1833 10.225 9.479 9.525 8.887C8.825 8.29567 7.98333 8 7 8C5.9 8 4.95833 8.39167 4.175 9.175C3.39167 9.95833 3 10.9 3 12C3 13.1 3.39167 14.0417 4.175 14.825C4.95833 15.6083 5.9 16 7 16Z" fill="#076DF2"/>
</svg>
