<svg width="24" height="24" viewBox="0 0 24 24" fill="none" xmlns="http://www.w3.org/2000/svg">
<path d="M17.524 20.4253C15.6092 20.4253 14.0502 18.8684 14.0502 16.9535C14.0502 16.6975 14.0772 16.4477 14.1314 16.2063L11.3027 14.8471C10.5513 16.2167 9.09227 17.1471 7.42298 17.1471C4.98357 17.1471 3 15.1635 3 12.7262C3 10.2888 4.98357 8.30734 7.42298 8.30734C8.67599 8.30734 9.81036 8.83185 10.6159 9.67066L15.8568 6.03236C15.7757 5.82838 15.7299 5.60359 15.7299 5.37047C15.7299 4.37972 16.5354 3.57422 17.5261 3.57422C18.5169 3.57422 19.3224 4.37972 19.3224 5.37047C19.3224 6.36122 18.5169 7.16673 17.5261 7.16673C17.0412 7.16673 16.5978 6.97315 16.2752 6.65886L11.0904 10.2597C11.5671 10.9653 11.846 11.8145 11.846 12.7282C11.846 13.2278 11.7627 13.7107 11.6087 14.1582L14.377 15.4882C14.9306 14.3039 16.1337 13.4817 17.5261 13.4817C19.441 13.4817 21 15.0386 21 16.9535C21 18.8684 19.441 20.4253 17.5261 20.4253H17.524ZM17.524 14.2352C16.0234 14.2352 14.8037 15.4549 14.8037 16.9535C14.8037 18.4521 16.0254 19.6718 17.524 19.6718C19.0227 19.6718 20.2444 18.4521 20.2444 16.9535C20.2444 15.4549 19.0227 14.2352 17.524 14.2352ZM7.4209 9.06289C5.39777 9.06289 3.75139 10.7072 3.75139 12.7303C3.75139 14.7535 5.39777 16.3978 7.4209 16.3978C9.44402 16.3978 11.0904 14.7535 11.0904 12.7303C11.0904 10.7072 9.44402 9.06289 7.4209 9.06289ZM17.524 4.33185C16.9496 4.33185 16.4813 4.80017 16.4813 5.37463C16.4813 5.9491 16.9496 6.41742 17.524 6.41742C18.0985 6.41742 18.5668 5.9491 18.5668 5.37463C18.5668 4.80017 18.0985 4.33185 17.524 4.33185ZM17.524 19.0661C16.3605 19.0661 15.4135 18.1191 15.4135 16.9556C15.4135 15.7921 16.3605 14.845 17.524 14.845C18.6876 14.845 19.6346 15.7921 19.6346 16.9556C19.6346 18.1191 18.6876 19.0661 17.524 19.0661ZM17.524 15.5985C16.7747 15.5985 16.1649 16.2063 16.1649 16.9556C16.1649 17.7049 16.7747 18.3127 17.524 18.3127C18.2734 18.3127 18.8832 17.7049 18.8832 16.9556C18.8832 16.2063 18.2734 15.5985 17.524 15.5985ZM7.4209 15.3716C5.96391 15.3716 4.77752 14.1873 4.77752 12.7303C4.77752 11.2733 5.96391 10.089 7.4209 10.089C8.87788 10.089 10.0643 11.2733 10.0643 12.7303C10.0643 14.1873 8.87788 15.3716 7.4209 15.3716ZM7.4209 10.8425C6.37811 10.8425 5.53099 11.6896 5.53099 12.7303C5.53099 13.771 6.37811 14.6182 7.4209 14.6182C8.46368 14.6182 9.31082 13.771 9.31082 12.7303C9.31082 11.6896 8.46368 10.8425 7.4209 10.8425Z" fill="#3875EC"/>
</svg>
