<svg width="24" height="24" viewBox="0 0 24 24" fill="none" xmlns="http://www.w3.org/2000/svg">
<path d="M4.9999 20.9998C4.66657 20.9998 4.37924 20.8788 4.1379 20.6368C3.8959 20.3955 3.7749 20.1081 3.7749 19.7748C3.7749 19.4248 3.8959 19.1331 4.1379 18.8998C4.37924 18.6665 4.66657 18.5498 4.9999 18.5498C5.33324 18.5498 5.6209 18.6665 5.8629 18.8998C6.10424 19.1331 6.2249 19.4248 6.2249 19.7748C6.2249 20.1081 6.10424 20.3955 5.8629 20.6368C5.6209 20.8788 5.33324 20.9998 4.9999 20.9998ZM17.7749 20.9998C17.7749 19.0665 17.4082 17.2538 16.6749 15.5618C15.9416 13.8705 14.9376 12.3871 13.6629 11.1118C12.3876 9.83714 10.9042 8.83314 9.2129 8.0998C7.5209 7.36647 5.70824 6.9998 3.7749 6.9998V5.5498C5.90824 5.5498 7.91257 5.9538 9.7879 6.7618C11.6626 7.57047 13.2959 8.6748 14.6879 10.0748C16.0792 11.4748 17.1832 13.1125 17.9999 14.9878C18.8166 16.8625 19.2249 18.8665 19.2249 20.9998H17.7749ZM11.7749 20.9998C11.7749 18.7831 10.9959 16.8958 9.4379 15.3378C7.87924 13.7791 5.99157 12.9998 3.7749 12.9998V11.5498C5.0749 11.5498 6.2999 11.7955 7.4499 12.2868C8.5999 12.7788 9.5999 13.4538 10.4499 14.3118C11.2999 15.1705 11.9749 16.1748 12.4749 17.3248C12.9749 18.4748 13.2249 19.6998 13.2249 20.9998H11.7749Z" fill="#076DF2"/>
</svg>
