<svg width="24" height="24" viewBox="0 0 24 24" fill="none" xmlns="http://www.w3.org/2000/svg">
<path d="M9.0251 21.2254L7.3501 18.4254L4.1751 17.7254L4.5001 14.4504L2.3501 12.0004L4.5001 9.55039L4.1751 6.27539L7.3501 5.57539L9.0251 2.77539L12.0001 4.02539L14.9751 2.77539L16.6501 5.57539L19.8251 6.27539L19.5001 9.55039L21.6501 12.0004L19.5001 14.4504L19.8251 17.7254L16.6501 18.4254L14.9751 21.2254L12.0001 19.9754L9.0251 21.2254ZM9.4501 19.9504L12.0001 18.9004L14.5501 19.9504L16.0001 17.5504L18.7501 16.9504L18.5001 14.1004L20.3501 12.0004L18.5001 9.90039L18.7501 7.05039L16.0001 6.45039L14.5501 4.05039L12.0001 5.10039L9.4501 4.05039L8.0001 6.45039L5.2501 7.05039L5.5001 9.90039L3.6501 12.0004L5.5001 14.1004L5.2501 16.9504L8.0001 17.5504L9.4501 19.9504ZM10.9501 14.8504L15.9001 9.90039L15.2001 9.17539L10.9501 13.4254L8.8001 11.3004L8.1001 12.0004L10.9501 14.8504Z" fill="#076DF2"/>
</svg>
