<svg width="24" height="24" viewBox="0 0 24 24" fill="none" xmlns="http://www.w3.org/2000/svg">
<path d="M16.8142 20.6073C15.7863 20.6073 14.9249 19.8796 14.7233 18.9109H8.57973C7.26466 18.9109 6.19507 17.8435 6.19507 16.5284V10.7005H4.91507C3.30849 10.7005 2 9.39415 2 7.78977C2 6.18538 3.29753 4.88785 4.89973 4.87908C5.58794 3.941 6.67288 3.38867 7.84767 3.38867C9.51342 3.38867 10.9425 4.49333 11.3764 6.06264C12.1523 6.10867 12.8449 6.53607 13.2329 7.19141C13.417 7.13004 13.6121 7.09717 13.8093 7.09717C14.6532 7.09717 15.3633 7.67799 15.5605 8.46264H17.7721C17.9759 7.49607 18.8351 6.76621 19.863 6.76621C21.0422 6.76621 22 7.72401 22 8.901C22 10.078 21.0422 11.0358 19.863 11.0358C18.8351 11.0358 17.9737 10.3081 17.7721 9.33936H15.5605C15.3633 10.1218 14.6532 10.7048 13.8093 10.7048H12.1479V11.7152C12.1479 12.5459 12.8252 13.221 13.6559 13.221H14.7211C14.9249 12.2544 15.7841 11.5246 16.8121 11.5246C17.9912 11.5246 18.949 12.4824 18.949 13.6594C18.949 14.8363 17.9912 15.7942 16.8121 15.7942C15.7841 15.7942 14.9227 15.0665 14.7211 14.0977H13.6559C12.3408 14.0977 11.2712 13.0303 11.2712 11.7152V10.7048H7.06959V16.5328C7.06959 17.3635 7.74685 18.0385 8.57753 18.0385H14.7211C14.9249 17.072 15.7841 16.3421 16.8121 16.3421C17.9912 16.3421 18.949 17.2999 18.949 18.4769C18.949 19.6539 17.9912 20.6117 16.8121 20.6117L16.8142 20.6073ZM16.8142 17.2144C16.1195 17.2144 15.554 17.7777 15.554 18.4725C15.554 19.1673 16.1195 19.7306 16.8142 19.7306C17.509 19.7306 18.0745 19.1673 18.0745 18.4725C18.0745 17.7777 17.509 17.2144 16.8142 17.2144ZM16.8142 12.3969C16.1195 12.3969 15.554 12.9602 15.554 13.655C15.554 14.3498 16.1195 14.9131 16.8142 14.9131C17.509 14.9131 18.0745 14.3498 18.0745 13.655C18.0745 12.9602 17.509 12.3969 16.8142 12.3969ZM19.8652 7.64073C19.1704 7.64073 18.6049 8.20401 18.6049 8.89881C18.6049 9.5936 19.1704 10.1569 19.8652 10.1569C20.56 10.1569 21.1255 9.5936 21.1255 8.89881C21.1255 8.20401 20.56 7.64073 19.8652 7.64073ZM4.91288 5.7558C3.78849 5.7558 2.87452 6.66758 2.87452 7.78977C2.87452 8.91196 3.78849 9.82374 4.91288 9.82374H13.8093C14.3222 9.82374 14.7386 9.4073 14.7386 8.89662C14.7386 8.38593 14.3222 7.96949 13.8093 7.96949C13.6186 7.96949 13.4345 8.02867 13.2767 8.13826C13.1627 8.21717 13.0203 8.23908 12.8888 8.19525C12.7573 8.15141 12.6542 8.0484 12.6104 7.91908C12.4132 7.32949 11.8608 6.93278 11.2384 6.93278C11.1836 6.93278 11.1288 6.93717 11.0762 6.94374C10.8438 6.97004 10.6334 6.81004 10.594 6.57991C10.3682 5.23634 9.21315 4.26319 7.84767 4.26319C6.88767 4.26319 6.00658 4.74758 5.49151 5.56073C5.40384 5.69881 5.24603 5.77552 5.08384 5.76237C5.02685 5.75799 4.96986 5.7536 4.91068 5.7536L4.91288 5.7558Z" fill="#3875EC"/>
</svg>
