<svg width="24" height="24" viewBox="0 0 24 24" fill="none" xmlns="http://www.w3.org/2000/svg">
<path d="M16.0938 18.748H7.90817C7.78134 18.748 7.66458 18.6824 7.59814 18.5771C7.53171 18.4698 7.52768 18.3366 7.58405 18.2253L8.71949 16.0234H3.36439C3.16307 16.0234 3 15.8624 3 15.6637V5.60971C3 5.41097 3.16307 5.25 3.36439 5.25H20.6356C20.8369 5.25 21 5.41097 21 5.60971V15.6656C21 15.8644 20.8369 16.0254 20.6356 16.0254H15.2805L16.4159 18.2273C16.4743 18.3386 16.4683 18.4718 16.4019 18.5791C16.3354 18.6864 16.2187 18.75 16.0918 18.75L16.0938 18.748ZM8.50207 18.0286H15.4999L14.4652 16.0234H9.53685L8.50207 18.0286ZM3.72878 15.304H20.2732V5.96743H3.72878V15.304ZM12.001 13.4359C11.1394 13.4359 10.4388 12.7462 10.4388 11.8977C10.4388 11.3949 10.6864 10.9457 11.0669 10.6655V8.70201C11.0669 8.19524 11.4856 7.78187 12.001 7.78187C12.5164 7.78187 12.9351 8.19524 12.9351 8.70201V10.6655C13.3156 10.9457 13.5632 11.3949 13.5632 11.8977C13.5632 12.7462 12.8627 13.4359 12.001 13.4359ZM12.001 11.0789C11.542 11.0789 11.1675 11.4465 11.1675 11.8977C11.1675 12.3488 11.542 12.7164 12.001 12.7164C12.46 12.7164 12.8345 12.3488 12.8345 11.8977C12.8345 11.4465 12.46 11.0789 12.001 11.0789ZM12.001 10.3595C12.0715 10.3595 12.1399 10.3634 12.2084 10.3734V8.704C12.2084 8.59271 12.1158 8.50129 12.001 8.50129C11.8863 8.50129 11.7936 8.59271 11.7936 8.704V10.3734C11.8621 10.3654 11.9305 10.3595 12.001 10.3595Z" fill="#3875EC"/>
</svg>
