<svg width="24" height="24" viewBox="0 0 24 24" fill="none" xmlns="http://www.w3.org/2000/svg">
<path d="M9.24682 21C8.95121 21 8.7118 20.7606 8.7118 20.465C8.7118 20.1694 8.95121 19.93 9.24682 19.93H11.4626V18.7182H5.67271C5.37711 18.7182 5.1377 18.4788 5.1377 18.1832V5.21091C5.1377 3.99186 6.12467 3 7.34128 3H16.6589C17.873 3 18.8625 3.99186 18.8625 5.21091V18.1832C18.8625 18.4788 18.623 18.7182 18.3274 18.7182H12.5375V19.93H14.7533C15.0489 19.93 15.2884 20.1694 15.2884 20.465C15.2884 20.7606 15.0489 21 14.7533 21H9.24682ZM6.20773 17.6458H17.7875V14.0619H6.20773V17.6458ZM6.20773 12.9894H17.7875V8.72883H6.20773V12.9894ZM6.20773 7.65635H17.7875V5.21091C17.7875 4.58306 17.2794 4.07248 16.6564 4.07248H7.33884C6.71587 4.07248 6.20773 4.58306 6.20773 5.21091V7.65635ZM16.4512 16.3876H11.294C10.9984 16.3876 10.759 16.1482 10.759 15.8526C10.759 15.557 10.9984 15.3176 11.294 15.3176H16.4512C16.7468 15.3176 16.9862 15.557 16.9862 15.8526C16.9862 16.1482 16.7468 16.3876 16.4512 16.3876ZM8.76066 16.2508H8.42841C8.13281 16.2508 7.8934 16.0114 7.8934 15.7158C7.8934 15.4202 8.13281 15.1808 8.42841 15.1808H8.76066C9.05627 15.1808 9.29568 15.4202 9.29568 15.7158C9.29568 16.0114 9.05627 16.2508 8.76066 16.2508ZM15.4862 11.3941H15.154C14.8584 11.3941 14.619 11.1547 14.619 10.8591C14.619 10.5635 14.8584 10.3241 15.154 10.3241H15.4862C15.7818 10.3241 16.0212 10.5635 16.0212 10.8591C16.0212 11.1547 15.7818 11.3941 15.4862 11.3941ZM12.7427 11.3941H7.58558C7.28998 11.3941 7.05057 11.1547 7.05057 10.8591C7.05057 10.5635 7.28998 10.3241 7.58558 10.3241H12.7427C13.0383 10.3241 13.2778 10.5635 13.2778 10.8591C13.2778 11.1547 13.0383 11.3941 12.7427 11.3941ZM16.4512 6.28339H11.294C10.9984 6.28339 10.759 6.04397 10.759 5.74837C10.759 5.45277 10.9984 5.21335 11.294 5.21335H16.4512C16.7468 5.21335 16.9862 5.45277 16.9862 5.74837C16.9862 6.04397 16.7468 6.28339 16.4512 6.28339ZM8.76066 6.28339H8.42841C8.13281 6.28339 7.8934 6.04397 7.8934 5.74837C7.8934 5.45277 8.13281 5.21335 8.42841 5.21335H8.76066C9.05627 5.21335 9.29568 5.45277 9.29568 5.74837C9.29568 6.04397 9.05627 6.28339 8.76066 6.28339Z" fill="#3875EC"/>
</svg>
