<svg width="24" height="24" viewBox="0 0 24 24" fill="none" xmlns="http://www.w3.org/2000/svg">
<path d="M8.3 17.7H9.2V15.7H11.2V14.8H9.2V12.8H8.3V14.8H6.3V15.7H8.3V17.7ZM13.3 16.95H17.7V16.05H13.3V16.95ZM13.3 14.45H17.7V13.55H13.3V14.45ZM14.1 10.5L15.5 9.1L16.9 10.5L17.525 9.85L16.125 8.45L17.525 7.05L16.9 6.425L15.5 7.825L14.1 6.425L13.475 7.05L14.875 8.45L13.475 9.85L14.1 10.5ZM6.55 8.9H10.95V8H6.55V8.9ZM5.625 20C5.15833 20 4.771 19.846 4.463 19.538C4.15433 19.2293 4 18.8417 4 18.375V5.625C4 5.15833 4.15433 4.771 4.463 4.463C4.771 4.15433 5.15833 4 5.625 4H18.375C18.8417 4 19.2293 4.15433 19.538 4.463C19.846 4.771 20 5.15833 20 5.625V18.375C20 18.8417 19.846 19.2293 19.538 19.538C19.2293 19.846 18.8417 20 18.375 20H5.625ZM5.625 19H18.375C18.5417 19 18.6873 18.9373 18.812 18.812C18.9373 18.6873 19 18.5417 19 18.375V5.625C19 5.45833 18.9373 5.31267 18.812 5.188C18.6873 5.06267 18.5417 5 18.375 5H5.625C5.45833 5 5.31267 5.06267 5.188 5.188C5.06267 5.31267 5 5.45833 5 5.625V18.375C5 18.5417 5.06267 18.6873 5.188 18.812C5.31267 18.9373 5.45833 19 5.625 19Z" fill="#1578F8"/>
</svg>
