<svg width="24" height="24" viewBox="0 0 24 24" fill="none" xmlns="http://www.w3.org/2000/svg">
<path d="M7.5 4C8.38333 4 9.20833 4.225 9.975 4.675C10.7417 5.125 11.4167 5.78333 12 6.65C12.5833 5.78333 13.2583 5.125 14.025 4.675C14.7917 4.225 15.6167 4 16.5 4C17.7667 4 18.8333 4.43333 19.7 5.3C20.5667 6.16667 21 7.23333 21 8.5C21 8.61667 20.996 8.72067 20.988 8.812C20.9793 8.904 20.9667 9.00833 20.95 9.125H19.95C19.9667 9.00833 19.9793 8.904 19.988 8.812C19.996 8.72067 20 8.61667 20 8.5C20 7.5 19.6667 6.66667 19 6C18.3333 5.33333 17.5 5 16.5 5C15.7 5 14.9627 5.22933 14.288 5.688C13.6127 6.146 13.0167 6.825 12.5 7.725H11.5C10.9667 6.80833 10.3667 6.125 9.7 5.675C9.03333 5.225 8.3 5 7.5 5C6.51667 5 5.68767 5.33333 5.013 6C4.33767 6.66667 4 7.5 4 8.5C4 8.61667 4.00433 8.72067 4.013 8.812C4.021 8.904 4.03333 9.00833 4.05 9.125H3.05C3.03333 9.00833 3.021 8.904 3.013 8.812C3.00433 8.72067 3 8.61667 3 8.5C3 7.23333 3.43333 6.16667 4.3 5.3C5.16667 4.43333 6.23333 4 7.5 4ZM6.6 14.875H8C8.53333 15.4083 9.12933 15.9833 9.788 16.6C10.446 17.2167 11.1833 17.9 12 18.65C12.8167 17.9 13.5543 17.2167 14.213 16.6C14.871 15.9833 15.4667 15.4083 16 14.875H17.4C16.8 15.4917 16.121 16.1623 15.363 16.887C14.6043 17.6123 13.7333 18.425 12.75 19.325L12 20L11.25 19.325C10.2667 18.425 9.39567 17.6123 8.637 16.887C7.879 16.1623 7.2 15.4917 6.6 14.875ZM11.05 15.5C11.15 15.5 11.2333 15.4707 11.3 15.412C11.3667 15.354 11.425 15.275 11.475 15.175L13.15 10.125L14.475 12.15C14.5583 12.25 14.6583 12.3333 14.775 12.4C14.8917 12.4667 15.0167 12.5 15.15 12.5H22.5V11.5H15.25L13.4 8.75C13.35 8.66667 13.2877 8.60833 13.213 8.575C13.1377 8.54167 13.05 8.525 12.95 8.525C12.85 8.525 12.7627 8.554 12.688 8.612C12.6127 8.67067 12.5583 8.75 12.525 8.85L10.85 13.9L9.475 11.85C9.39167 11.75 9.296 11.6667 9.188 11.6C9.07933 11.5333 8.95833 11.5 8.825 11.5H1.5V12.5H8.725L10.575 15.275C10.625 15.3583 10.6917 15.4167 10.775 15.45C10.8583 15.4833 10.95 15.5 11.05 15.5Z" fill="#1578F8"/>
</svg>
