<svg width="24" height="24" viewBox="0 0 24 24" fill="none" xmlns="http://www.w3.org/2000/svg">
<path d="M18 18.125C18.4167 18.125 18.7707 17.9793 19.062 17.688C19.354 17.396 19.5 17.0417 19.5 16.625C19.5 16.2083 19.354 15.854 19.062 15.562C18.7707 15.2707 18.4167 15.125 18 15.125C17.5833 15.125 17.2293 15.2707 16.938 15.562C16.646 15.854 16.5 16.2083 16.5 16.625C16.5 17.0417 16.646 17.396 16.938 17.688C17.2293 17.9793 17.5833 18.125 18 18.125ZM18 21.125C18.5 21.125 18.9667 21.0083 19.4 20.775C19.8333 20.5417 20.1917 20.2167 20.475 19.8C20.0917 19.5667 19.6917 19.396 19.275 19.288C18.8583 19.1793 18.4333 19.125 18 19.125C17.5667 19.125 17.1417 19.1793 16.725 19.288C16.3083 19.396 15.9083 19.5667 15.525 19.8C15.8083 20.2167 16.1667 20.5417 16.6 20.775C17.0333 21.0083 17.5 21.125 18 21.125ZM5.625 20C5.175 20 4.79167 19.8417 4.475 19.525C4.15833 19.2083 4 18.825 4 18.375V5.625C4 5.175 4.15833 4.79167 4.475 4.475C4.79167 4.15833 5.175 4 5.625 4H18.375C18.825 4 19.2083 4.15833 19.525 4.475C19.8417 4.79167 20 5.175 20 5.625V11.575C19.8167 11.5083 19.646 11.454 19.488 11.412C19.3293 11.3707 19.1667 11.3333 19 11.3V5.625C19 5.45833 18.9373 5.31267 18.812 5.188C18.6873 5.06267 18.5417 5 18.375 5H5.625C5.45833 5 5.31267 5.06267 5.188 5.188C5.06267 5.31267 5 5.45833 5 5.625V18.375C5 18.5417 5.06267 18.6873 5.188 18.812C5.31267 18.9373 5.45833 19 5.625 19H11.275C11.3083 19.1833 11.3417 19.354 11.375 19.512C11.4083 19.6707 11.4583 19.8333 11.525 20H5.625ZM5 19V5V11.3V11.225V19ZM7.5 16.275H11.45C11.5 16.1083 11.5543 15.9417 11.613 15.775C11.671 15.6083 11.7333 15.4417 11.8 15.275H7.5V16.275ZM7.5 12.5H14.075C14.4083 12.2667 14.7333 12.0707 15.05 11.912C15.3667 11.754 15.7083 11.625 16.075 11.525V11.5H7.5V12.5ZM7.5 8.725H16.5V7.725H7.5V8.725ZM18 22.125C16.8833 22.125 15.9373 21.7333 15.162 20.95C14.3873 20.1667 14 19.225 14 18.125C14 17.0083 14.3873 16.0623 15.162 15.287C15.9373 14.5123 16.8833 14.125 18 14.125C19.1167 14.125 20.0623 14.5123 20.837 15.287C21.6123 16.0623 22 17.0083 22 18.125C22 19.225 21.6123 20.1667 20.837 20.95C20.0623 21.7333 19.1167 22.125 18 22.125Z" fill="#076DF2"/>
</svg>
