<svg width="24" height="24" viewBox="0 0 24 24" fill="none" xmlns="http://www.w3.org/2000/svg">
<path d="M7.3749 17.225C6.49157 17.225 5.73324 16.9083 5.0999 16.275C4.46657 15.6417 4.1499 14.8833 4.1499 14C4.1499 13.1167 4.46657 12.3583 5.0999 11.725C5.73324 11.0917 6.49157 10.775 7.3749 10.775C8.2749 10.775 9.04157 11.0917 9.6749 11.725C10.3082 12.3583 10.6249 13.1167 10.6249 14C10.6249 14.8833 10.3082 15.6417 9.6749 16.275C9.04157 16.9083 8.2749 17.225 7.3749 17.225ZM7.3749 16.225C7.99157 16.225 8.5209 16.0083 8.9629 15.575C9.40424 15.1417 9.6249 14.6167 9.6249 14C9.6249 13.3833 9.40424 12.8583 8.9629 12.425C8.5209 11.9917 7.99157 11.775 7.3749 11.775C6.7749 11.775 6.2539 11.9917 5.8119 12.425C5.37057 12.8583 5.1499 13.3833 5.1499 14C5.1499 14.6167 5.37057 15.1417 5.8119 15.575C6.2539 16.0083 6.7749 16.225 7.3749 16.225ZM16.1249 13.375C14.8582 13.375 13.7916 12.9417 12.9249 12.075C12.0582 11.2083 11.6249 10.1417 11.6249 8.875C11.6249 7.625 12.0582 6.56267 12.9249 5.688C13.7916 4.81267 14.8582 4.375 16.1249 4.375C17.3749 4.375 18.4372 4.81267 19.3119 5.688C20.1872 6.56267 20.6249 7.625 20.6249 8.875C20.6249 10.1417 20.1872 11.2083 19.3119 12.075C18.4372 12.9417 17.3749 13.375 16.1249 13.375ZM14.2999 19.65C13.6832 19.65 13.1582 19.4333 12.7249 19C12.2916 18.5667 12.0749 18.0417 12.0749 17.425C12.0749 16.8083 12.2916 16.2833 12.7249 15.85C13.1582 15.4167 13.6832 15.2 14.2999 15.2C14.9166 15.2 15.4459 15.4167 15.8879 15.85C16.3292 16.2833 16.5499 16.8083 16.5499 17.425C16.5499 18.0417 16.3332 18.5667 15.8999 19C15.4666 19.4333 14.9332 19.65 14.2999 19.65ZM16.1249 12.375C17.1082 12.375 17.9376 12.0377 18.6129 11.363C19.2876 10.6877 19.6249 9.85833 19.6249 8.875C19.6249 7.89167 19.2876 7.06233 18.6129 6.387C17.9376 5.71233 17.1082 5.375 16.1249 5.375C15.1416 5.375 14.3122 5.71233 13.6369 6.387C12.9622 7.06233 12.6249 7.89167 12.6249 8.875C12.6249 9.85833 12.9622 10.6877 13.6369 11.363C14.3122 12.0377 15.1416 12.375 16.1249 12.375ZM14.2999 18.65C14.6332 18.65 14.9249 18.5293 15.1749 18.288C15.4249 18.046 15.5499 17.7583 15.5499 17.425C15.5499 17.0917 15.4249 16.804 15.1749 16.562C14.9249 16.3207 14.6332 16.2 14.2999 16.2C13.9666 16.2 13.6792 16.3207 13.4379 16.562C13.1959 16.804 13.0749 17.0917 13.0749 17.425C13.0749 17.7583 13.1959 18.046 13.4379 18.288C13.6792 18.5293 13.9666 18.65 14.2999 18.65Z" fill="#076DF2"/>
</svg>
