<svg width="24" height="24" viewBox="0 0 24 24" fill="none" xmlns="http://www.w3.org/2000/svg">
<path d="M3 19.5002C2.58333 19.5002 2.22933 19.3542 1.938 19.0622C1.646 18.7709 1.5 18.4169 1.5 18.0002C1.5 17.5835 1.646 17.2295 1.938 16.9382C2.22933 16.6462 2.58333 16.5002 3 16.5002C3.13333 16.5002 3.25 16.5085 3.35 16.5252C3.45 16.5419 3.55 16.5919 3.65 16.6752L8.675 11.6502C8.59167 11.5502 8.54167 11.4502 8.525 11.3502C8.50833 11.2502 8.5 11.1335 8.5 11.0002C8.5 10.5835 8.646 10.2295 8.938 9.9382C9.22933 9.6462 9.58333 9.5002 10 9.5002C10.4167 9.5002 10.7707 9.6462 11.062 9.9382C11.354 10.2295 11.5 10.5835 11.5 11.0002C11.5 11.0835 11.4583 11.2919 11.375 11.6252L14.375 14.6252C14.475 14.5752 14.571 14.5419 14.663 14.5252C14.7543 14.5085 14.8667 14.5002 15 14.5002C15.1333 14.5002 15.25 14.5085 15.35 14.5252C15.45 14.5419 15.5417 14.5919 15.625 14.6752L19.675 10.6252C19.5917 10.5419 19.5417 10.4502 19.525 10.3502C19.5083 10.2502 19.5 10.1335 19.5 10.0002C19.5 9.58353 19.646 9.22953 19.938 8.9382C20.2293 8.6462 20.5833 8.5002 21 8.5002C21.4167 8.5002 21.7707 8.6462 22.062 8.9382C22.354 9.22953 22.5 9.58353 22.5 10.0002C22.5 10.4169 22.354 10.7709 22.062 11.0622C21.7707 11.3542 21.4167 11.5002 21 11.5002C20.8667 11.5002 20.75 11.4919 20.65 11.4752C20.55 11.4585 20.4583 11.4085 20.375 11.3252L16.325 15.3752C16.4083 15.4585 16.4583 15.5502 16.475 15.6502C16.4917 15.7502 16.5 15.8669 16.5 16.0002C16.5 16.4169 16.354 16.7709 16.062 17.0622C15.7707 17.3542 15.4167 17.5002 15 17.5002C14.5833 17.5002 14.2293 17.3542 13.938 17.0622C13.646 16.7709 13.5 16.4169 13.5 16.0002C13.5 15.8669 13.5083 15.7502 13.525 15.6502C13.5417 15.5502 13.5917 15.4502 13.675 15.3502L10.65 12.3252C10.55 12.4085 10.45 12.4585 10.35 12.4752C10.25 12.4919 10.1333 12.5002 10 12.5002C9.91667 12.5002 9.70833 12.4585 9.375 12.3752L4.375 17.3752C4.425 17.4752 4.45833 17.5712 4.475 17.6632C4.49167 17.7545 4.5 17.8669 4.5 18.0002C4.5 18.4169 4.354 18.7709 4.062 19.0622C3.77067 19.3542 3.41667 19.5002 3 19.5002ZM4 9.1752L3.625 8.3752L2.825 8.0002L3.625 7.6252L4 6.8252L4.375 7.6252L5.175 8.0002L4.375 8.3752L4 9.1752ZM15 7.8002L14.425 6.5752L13.2 6.0002L14.425 5.4252L15 4.2002L15.575 5.4252L16.8 6.0002L15.575 6.5752L15 7.8002Z" fill="#076DF2"/>
</svg>
