<svg width="24" height="24" viewBox="0 0 24 24" fill="none" xmlns="http://www.w3.org/2000/svg">
<path d="M21.4 8.1C21.4 7.1 21.2 6.4 21 5.8C20.8 5.2 20.4 4.6 19.9 4.1C19.4 3.6 18.8 3.2 18.2 3C17.6 2.8 16.9 2.6 15.9 2.6C14.9 2.5 14.6 2.5 12 2.5C9.4 2.5 9.1 2.5 8.1 2.6C7.1 2.6 6.4 2.8 5.8 3C5.2 3.2 4.6 3.6 4.1 4.1C3.6 4.6 3.2 5.2 3 5.8C2.8 6.4 2.6 7.1 2.6 8.1C2.5 9.1 2.5 9.4 2.5 12C2.5 14.6 2.5 14.9 2.6 15.9C2.6 16.9 2.8 17.6 3 18.2C3.2 18.8 3.6 19.4 4.1 19.9C4.6 20.4 5.2 20.8 5.8 21C6.4 21.2 7.1 21.4 8.1 21.4C9.1 21.4 9.4 21.5 12 21.5C14.6 21.5 14.9 21.5 15.9 21.4C16.9 21.4 17.6 21.2 18.2 21C18.8 20.8 19.4 20.4 19.9 19.9C20.4 19.4 20.8 18.8 21 18.2C21.2 17.6 21.4 16.9 21.4 15.9C21.4 14.9 21.5 14.6 21.5 12C21.5 9.4 21.5 9.1 21.4 8.1ZM19.7 15.8C19.7 16.7 19.5 17.2 19.4 17.6C19.2 18 19 18.4 18.7 18.7C18.4 19 18.1 19.2 17.6 19.4C17.3 19.5 16.8 19.7 15.8 19.7C14.8 19.7 14.5 19.8 12 19.8C9.5 19.8 9.2 19.8 8.2 19.7C7.3 19.7 6.8 19.5 6.4 19.4C6 19.2 5.6 19 5.3 18.7C5 18.4 4.8 18.1 4.6 17.6C4.5 17.3 4.3 16.8 4.3 15.8C4.3 14.8 4.2 14.5 4.2 12C4.2 9.5 4.2 9.2 4.3 8.2C4.3 7.3 4.5 6.8 4.6 6.4C4.8 6 5 5.6 5.3 5.3C5.6 5 5.9 4.8 6.4 4.6C6.7 4.5 7.2 4.3 8.2 4.3C9.2 4.3 9.5 4.2 12 4.2C14.5 4.2 14.8 4.2 15.8 4.3C16.7 4.3 17.2 4.5 17.6 4.6C18 4.8 18.4 5 18.7 5.3C19 5.6 19.2 5.9 19.4 6.4C19.5 6.7 19.7 7.2 19.7 8.2C19.7 9.2 19.8 9.5 19.8 12C19.8 14.5 19.8 14.8 19.7 15.8ZM18.2 6.9C18.2 7.5 17.7 8 17.1 8C16.5 8 16 7.5 16 6.9C16 6.3 16.5 5.8 17.1 5.8C17.7 5.8 18.2 6.3 18.2 6.9ZM12 7.1C9.3 7.1 7.1 9.3 7.1 12C7.1 14.7 9.3 16.9 12 16.9C14.7 16.9 16.9 14.7 16.9 12C16.9 9.3 14.7 7.1 12 7.1ZM12 15.2C10.3 15.2 8.8 13.8 8.8 12C8.8 10.2 10.2 8.8 12 8.8C13.8 8.8 15.2 10.2 15.2 12C15.2 13.8 13.7 15.2 12 15.2Z" fill="#0A0A0A"/>
</svg>
