<svg width="24" height="24" viewBox="0 0 24 24" fill="none" xmlns="http://www.w3.org/2000/svg">
<path d="M20.2154 2.5H3.87905C3.13648 2.5 2.5 3.13333 2.5 3.87222V20.1278C2.5 20.8667 3.13648 21.5 3.87905 21.5H20.1093C20.8519 21.5 21.4884 20.8667 21.4884 20.1278V3.87222C21.5945 3.13333 20.958 2.5 20.2154 2.5ZM8.12226 18.65H5.36417V9.57222H8.22834V18.65H8.12226ZM6.74322 8.41111C5.78849 8.41111 5.15201 7.67222 5.15201 6.72222C5.15201 5.77222 5.89457 5.13889 6.74322 5.13889C7.69794 5.13889 8.33442 5.87778 8.33442 6.72222C8.4405 7.67222 7.69794 8.41111 6.74322 8.41111ZM18.7303 18.65H15.8661V14.2167C15.8661 13.1611 15.8661 11.7889 14.381 11.7889C12.8959 11.7889 12.6837 12.95 12.6837 14.1111V18.5444H9.92563V9.57222H12.6837V10.8389C13.108 10.1 13.9567 9.36111 15.3357 9.36111C18.1999 9.36111 18.7303 11.2611 18.7303 13.6889V18.65Z" fill="#0A0A0A"/>
</svg>
