<svg width="24" height="24" viewBox="0 0 24 24" fill="none" xmlns="http://www.w3.org/2000/svg">
<path d="M12.63 20.9976H11.258C10.6816 20.9976 10.1933 20.5856 10.0933 20.021L9.83128 18.5395C9.50734 18.4323 9.19055 18.3013 8.88567 18.1465L7.54228 18.9778C7.35411 19.0945 7.13974 19.154 6.9206 19.154C6.60381 19.154 6.30846 19.0302 6.08456 18.8087L5.11274 17.8368C4.70544 17.4295 4.65065 16.7936 4.97936 16.322L5.8416 15.0881C5.68916 14.7832 5.55816 14.4665 5.45097 14.1425L3.91226 13.7805C3.37634 13.6542 3 13.1802 3 12.6276V11.2557C3 10.6792 3.41207 10.1886 3.97658 10.0909L5.45812 9.8289C5.5653 9.50496 5.69869 9.18817 5.85113 8.88329L5.01985 7.5399C4.72926 7.07305 4.79833 6.47281 5.18896 6.08218L6.16078 5.11274C6.38467 4.88884 6.68241 4.76499 6.99682 4.76499C7.23978 4.76499 7.47558 4.83883 7.67566 4.97936L8.90949 5.8416C9.20723 5.69154 9.51449 5.5653 9.8289 5.4605L10.0909 3.97896C10.1909 3.41207 10.6816 3 11.2557 3H12.6276C13.1778 3 13.6518 3.37396 13.7805 3.91227L14.1425 5.45097C14.4665 5.55816 14.7832 5.68678 15.0881 5.8416L16.3196 4.97936C16.5197 4.83883 16.7531 4.76499 16.9984 4.76499C17.3152 4.76499 17.6129 4.88884 17.8368 5.11274L18.8063 6.08218C19.1969 6.47281 19.266 7.07305 18.9754 7.54228L18.1441 8.88567C18.2989 9.19055 18.4299 9.50735 18.5395 9.83128L20.021 10.0933C20.5879 10.1933 21 10.684 21 11.258V12.63C21 13.1826 20.6237 13.6566 20.0877 13.7829L18.5514 14.1449C18.4442 14.4688 18.3132 14.7856 18.1608 15.0929L19.023 16.3243C19.3517 16.796 19.2969 17.4319 18.8896 17.8392L17.9202 18.8087C17.6987 19.0326 17.401 19.1564 17.0842 19.1564C16.865 19.1564 16.6483 19.0945 16.4601 18.9778L15.1167 18.1465C14.8047 18.3061 14.4784 18.4395 14.1449 18.549L13.7828 20.0877C13.6566 20.6237 13.1826 21 12.63 21V20.9976ZM8.869 17.1175C8.94998 17.1175 9.02858 17.1366 9.10242 17.1794C9.50496 17.4057 9.93608 17.5844 10.3815 17.7106C10.5578 17.7606 10.6888 17.9059 10.7221 18.0869L11.0341 19.8543C11.0532 19.9639 11.1485 20.0425 11.2604 20.0425H12.6324C12.742 20.0425 12.8301 19.971 12.8563 19.8662L13.2803 18.0607C13.3208 17.8916 13.4494 17.7582 13.6161 17.7106C14.0639 17.5844 14.4974 17.4057 14.9023 17.1771C15.0548 17.0913 15.2382 17.0961 15.3859 17.1866L16.9627 18.1632C17.0532 18.2203 17.1723 18.206 17.2461 18.1322L18.2156 17.1604C18.2942 17.0818 18.3061 16.9579 18.2418 16.8674L17.2128 15.3954C17.108 15.2453 17.0985 15.0476 17.1866 14.8881C17.4129 14.4855 17.5891 14.0544 17.7154 13.609C17.763 13.4422 17.8964 13.3136 18.0655 13.2731L19.871 12.8491C19.9782 12.8253 20.0472 12.7348 20.0472 12.6252V11.2533C20.0472 11.1413 19.9686 11.0461 19.8591 11.027L18.0917 10.715C17.9107 10.684 17.7654 10.5506 17.7154 10.3744C17.5891 9.92894 17.4105 9.49782 17.1842 9.09528C17.0985 8.94284 17.1032 8.75943 17.1937 8.61175L18.1703 7.03493C18.2275 6.94204 18.2132 6.82771 18.137 6.75149L17.1675 5.78206C17.0889 5.70345 16.9651 5.69154 16.8746 5.75586L15.4025 6.78722C15.2525 6.89202 15.0548 6.90155 14.8952 6.81342C14.4927 6.58714 14.0615 6.41088 13.6161 6.28464C13.4494 6.237 13.3208 6.10361 13.2803 5.9345L12.8563 4.12902C12.8325 4.02422 12.742 3.95276 12.6324 3.95276H11.2604C11.1485 3.95276 11.0532 4.03136 11.0341 4.14331L10.7221 5.91068C10.6911 6.0917 10.5578 6.237 10.3815 6.28702C9.93847 6.41326 9.51211 6.58952 9.11195 6.81342C8.95236 6.90393 8.75466 6.89202 8.60461 6.78722L7.13259 5.75586C7.04208 5.69393 6.91822 5.70345 6.83962 5.78206L5.8678 6.75149C5.79396 6.82771 5.77967 6.94204 5.83684 7.03493L6.81342 8.61175C6.90393 8.75943 6.90869 8.94522 6.82294 9.09528C6.59666 9.49782 6.41802 9.92894 6.29178 10.3744C6.24176 10.5506 6.09646 10.6816 5.91544 10.715L4.14807 11.027C4.03851 11.0461 3.9599 11.1413 3.9599 11.2533V12.6252C3.9599 12.7348 4.03136 12.8229 4.13616 12.8491L5.94164 13.2731C6.11076 13.3136 6.24414 13.4422 6.29178 13.609C6.41802 14.0544 6.59666 14.4855 6.82056 14.8881C6.91107 15.0476 6.89917 15.2453 6.79436 15.3954L5.76538 16.8674C5.70107 16.9579 5.71298 17.0818 5.79158 17.1604L6.76102 18.1298C6.83485 18.2037 6.95395 18.2179 7.04446 18.1632L8.62128 17.1866C8.6975 17.1389 8.78563 17.1151 8.87138 17.1151L8.869 17.1175ZM12.0012 16.8341C9.33585 16.8341 7.16594 14.6665 7.16594 11.9988C7.16594 9.33108 9.33585 7.16356 12.0012 7.16356C14.6665 7.16356 16.8364 9.33108 16.8364 11.9988C16.8364 14.6665 14.6665 16.8341 12.0012 16.8341ZM11.339 15.8241C11.7701 15.898 12.2346 15.898 12.6657 15.8241V13.9901C12.6657 13.8257 12.7515 13.6733 12.8896 13.5852C13.3898 13.2755 13.6876 12.7396 13.6876 12.156C13.6876 11.9202 13.6376 11.6915 13.5447 11.4819V11.6058C13.5447 11.732 13.4946 11.8559 13.4041 11.944L12.337 12.9992C12.1513 13.1826 11.8511 13.1826 11.6653 12.9992L10.5983 11.944C10.5077 11.8535 10.4577 11.732 10.4577 11.6058V11.4819C10.3648 11.6915 10.3172 11.9202 10.3172 12.156C10.3172 12.7396 10.6149 13.2755 11.1151 13.5852C11.2557 13.6733 11.339 13.8257 11.339 13.9901V15.8241ZM13.6185 14.2402V15.5288C14.9524 14.9143 15.8813 13.5637 15.8813 12.0012C15.8813 9.86225 14.1401 8.12108 12.0012 8.12108C9.86225 8.12108 8.12108 9.86225 8.12108 12.0012C8.12108 13.5637 9.05002 14.9143 10.3839 15.5288V14.2402C9.73839 13.7424 9.36205 12.9825 9.36205 12.156C9.36205 11.2104 9.87416 10.3315 10.6983 9.86225C10.846 9.77888 11.027 9.77888 11.1747 9.86225C11.3223 9.948 11.4129 10.1052 11.4129 10.2743V11.4057L12.0012 11.9893L12.5895 11.4057V10.2743C12.5895 10.1052 12.68 9.948 12.8277 9.86225C12.973 9.7765 13.1564 9.7765 13.3041 9.85987C14.1282 10.3291 14.6427 11.208 14.6427 12.1536C14.6427 12.9778 14.2664 13.7376 13.6209 14.2378L13.6185 14.2402Z" fill="#3875EC"/>
</svg>
