<svg width="24" height="24" viewBox="0 0 24 24" fill="none" xmlns="http://www.w3.org/2000/svg">
<path d="M4.5 19.0004C4.08333 19.0004 3.72933 18.8544 3.438 18.5624C3.146 18.2711 3 17.9171 3 17.5004V7.37539C3 6.95872 3.16233 6.58772 3.487 6.26239C3.81233 5.93772 4.19167 5.77539 4.625 5.77539H10.775L12 7.00039H19.375C19.725 7.00039 20.0293 7.09206 20.288 7.27539C20.546 7.45872 20.725 7.70039 20.825 8.00039H11.6L10.375 6.77539H4.625C4.44167 6.77539 4.29167 6.83372 4.175 6.95039C4.05833 7.06706 4 7.20872 4 7.37539V17.3754C4 17.5254 4.03333 17.6464 4.1 17.7384C4.16667 17.8297 4.25833 17.9004 4.375 17.9504L6.775 10.0004H22.975L20.6 17.9504C20.5 18.2671 20.3167 18.5211 20.05 18.7124C19.7833 18.9044 19.4833 19.0004 19.15 19.0004H4.5ZM5.425 18.0004H19.55L21.625 11.0004H7.525L5.425 18.0004Z" fill="#076DF2"/>
</svg>
