<svg width="24" height="24" viewBox="0 0 24 24" fill="none" xmlns="http://www.w3.org/2000/svg">
<path d="M4.7749 19.4498V17.8498H7.7749L5.1999 9.37483C4.76657 9.17483 4.42057 8.87483 4.1619 8.47483C3.9039 8.07483 3.7749 7.62483 3.7749 7.12483C3.7749 6.42483 4.01657 5.83317 4.4999 5.34983C4.98324 4.8665 5.5749 4.62483 6.2749 4.62483C6.8749 4.62483 7.3959 4.8125 7.8379 5.18783C8.27924 5.5625 8.5749 6.0415 8.7249 6.62483H12.3749V5.12483C12.3749 4.97483 12.4249 4.85383 12.5249 4.76183C12.6249 4.6705 12.7416 4.62483 12.8749 4.62483C12.9916 4.62483 13.0916 4.65817 13.1749 4.72483C13.2582 4.7915 13.3082 4.87483 13.3249 4.97483V5.24983L15.1499 3.57483C15.2832 3.4415 15.4376 3.35817 15.6129 3.32483C15.7876 3.2915 15.9499 3.3165 16.0999 3.39983L19.8999 5.17483C20.0166 5.22483 20.1042 5.30817 20.1629 5.42483C20.2209 5.5415 20.2249 5.65817 20.1749 5.77483C20.1082 5.90817 20.0209 5.9915 19.9129 6.02483C19.8042 6.05817 19.6832 6.0415 19.5499 5.97483L15.7749 4.22483L13.3749 6.42483V7.82483L15.7749 9.97483L19.5499 8.19983C19.6832 8.14983 19.8082 8.1415 19.9249 8.17483C20.0416 8.20817 20.1249 8.28317 20.1749 8.39983C20.2416 8.5165 20.2416 8.63317 20.1749 8.74983C20.1082 8.8665 20.0166 8.94983 19.8999 8.99983L16.0999 10.7748C15.9499 10.8748 15.7876 10.9038 15.6129 10.8618C15.4376 10.8205 15.2832 10.7415 15.1499 10.6248L13.3249 8.97483V9.24983C13.3082 9.34983 13.2582 9.43717 13.1749 9.51183C13.0916 9.58717 12.9916 9.62483 12.8749 9.62483C12.7416 9.62483 12.6249 9.57483 12.5249 9.47483C12.4249 9.37483 12.3749 9.25817 12.3749 9.12483V7.62483H8.7249C8.6749 7.8415 8.59157 8.05817 8.4749 8.27483C8.35824 8.4915 8.2249 8.67483 8.0749 8.82483L12.9249 17.8498H16.7749V19.4498H4.7749ZM6.2749 8.62483C6.6749 8.62483 7.0249 8.47483 7.3249 8.17483C7.6249 7.87483 7.7749 7.52483 7.7749 7.12483C7.7749 6.70817 7.6249 6.35383 7.3249 6.06183C7.0249 5.7705 6.6749 5.62483 6.2749 5.62483C5.85824 5.62483 5.50424 5.7705 5.2129 6.06183C4.9209 6.35383 4.7749 6.70817 4.7749 7.12483C4.7749 7.52483 4.9209 7.87483 5.2129 8.17483C5.50424 8.47483 5.85824 8.62483 6.2749 8.62483ZM8.8249 17.8498H11.7749L7.2499 9.42483C7.1499 9.4915 7.00824 9.5455 6.8249 9.58683C6.64157 9.62883 6.46657 9.6415 6.2999 9.62483L8.8249 17.8498Z" fill="#1578F8"/>
</svg>
