<svg width="24" height="24" viewBox="0 0 24 24" fill="none" xmlns="http://www.w3.org/2000/svg">
<path d="M12.2902 18.3264C12.0093 18.3264 11.7785 18.0902 11.7785 17.7964V16.532H7.9467C7.66585 16.532 7.43505 16.2958 7.43505 16.002V10.4459C7.43505 10.155 7.66307 9.91595 7.9467 9.91595H16.5892C16.8701 9.91595 17.1009 10.1521 17.1009 10.4459V16.002C17.1009 16.2929 16.8728 16.532 16.5892 16.532H12.7991V17.7964C12.7991 18.0873 12.5711 18.3264 12.2874 18.3264H12.2902ZM16.0803 15.4749V10.9759H8.45836V15.4749H16.0803Z" fill="#3875EC"/>
<path d="M13.9421 18.3467H10.6386C10.3578 18.3467 10.127 18.1105 10.127 17.8167C10.127 17.523 10.355 17.2868 10.6386 17.2868H13.9421C14.223 17.2868 14.4538 17.523 14.4538 17.8167C14.4538 18.1105 14.2258 18.3467 13.9421 18.3467Z" fill="#3875EC"/>
<path d="M19.4616 21.9355H5.02132C4.77662 21.9355 4.57641 21.7311 4.57641 21.4747V10.0947H2.44359C2.25172 10.0947 2.07932 9.96508 2.02092 9.77498C1.96253 9.58488 2.02926 9.3775 2.18498 9.25941L11.9926 2.02125C12.1511 1.90604 12.3624 1.90604 12.5182 2.02701L21.8225 9.26517C21.9754 9.38326 22.0366 9.59064 21.9782 9.77786C21.9198 9.96508 21.7474 10.0918 21.5555 10.0918H19.9065V21.4718C19.9065 21.7253 19.7063 21.9327 19.4616 21.9327V21.9355ZM5.46624 21.0139H19.0195V9.63385C19.0195 9.38038 19.2197 9.173 19.4644 9.173H20.2263L12.2456 2.96599L3.83395 9.173H5.02132C5.26603 9.173 5.46624 9.3775 5.46624 9.63385V21.0139Z" fill="#3875EC"/>
</svg>
