<svg width="24" height="20" viewBox="0 0 24 20" fill="none" xmlns="http://www.w3.org/2000/svg">
<path d="M19 13.3339C19 13.8906 18.5479 14.3425 17.991 14.3425C17.4341 14.3425 16.982 13.8906 16.982 13.3339C16.982 12.7772 17.4341 12.3254 17.991 12.3254C18.5479 12.3254 19 12.7772 19 13.3339Z" fill="#3875EC"/>
<path d="M7.01797 12.3342C7.01797 12.8909 6.56591 13.3428 6.00899 13.3428C5.45207 13.3428 5 12.8909 5 12.3342C5 11.7775 5.45207 11.3256 6.00899 11.3256C6.56591 11.3256 7.01797 11.7775 7.01797 12.3342Z" fill="#3875EC"/>
<path d="M9.81214 6.72022C9.81214 7.27691 9.36008 7.72879 8.80316 7.72879C8.24624 7.72879 7.79417 7.27691 7.79417 6.72022C7.79417 6.16352 8.24624 5.71164 8.80316 5.71164C9.36008 5.71164 9.81214 6.16352 9.81214 6.72022Z" fill="#3875EC"/>
<path d="M16.4904 6.72022C16.4904 7.27691 16.0383 7.72879 15.4814 7.72879C14.9245 7.72879 14.4724 7.27691 14.4724 6.72022C14.4724 6.16352 14.9245 5.71164 15.4814 5.71164C16.0383 5.71164 16.4904 6.16352 16.4904 6.72022Z" fill="#3875EC"/>
<path d="M13.219 2.00858C13.219 2.56528 12.7669 3.01716 12.21 3.01716C11.6531 3.01716 11.201 2.56528 11.201 2.00858C11.201 1.45188 11.6531 1 12.21 1C12.7669 1 13.219 1.45188 13.219 2.00858Z" fill="#3875EC"/>
<path d="M12.2145 7.79689C11.9326 7.79689 11.7043 7.56862 11.7043 7.28678V2.26719C11.7043 1.98534 11.9326 1.75707 12.2145 1.75707C12.4963 1.75707 12.7246 1.98534 12.7246 2.26719V7.28678C12.7246 7.56862 12.4963 7.79689 12.2145 7.79689Z" fill="#3875EC"/>
<path d="M12.6735 12.5838L12.0397 11.7825L14.9268 9.50217C14.8779 6.74197 14.8919 6.72567 15.076 6.537C15.1715 6.43917 15.3043 6.38326 15.4418 6.38326L15.4371 7.40582H15.4395C15.7354 7.40582 15.9195 7.16357 15.9381 6.98655C15.9172 7.17056 15.9288 8.52853 15.9498 9.7351C15.9521 9.89349 15.8799 10.0472 15.7564 10.145L12.6712 12.5815L12.6735 12.5838Z" fill="#3875EC"/>
<path d="M16.2082 18.5C15.9263 18.5 15.6979 18.2717 15.6979 17.9899V14.6357C15.6979 14.4703 15.7795 14.3143 15.9146 14.2188C16.5787 13.7506 17.3267 13.2102 17.4992 13.0635C17.5108 13.0495 17.5225 13.0378 17.5341 13.0239C17.7345 12.8259 18.0584 12.8282 18.2565 13.0285C18.3613 13.1357 18.4149 13.2847 18.4009 13.4338C18.3776 13.7063 18.3753 13.7273 16.7185 14.8989V17.9876C16.7185 18.2694 16.4902 18.4977 16.2082 18.4977V18.5ZM12.2049 18.5C11.923 18.5 11.6946 18.2717 11.6946 17.9899V11.2513L8.60938 9.502C8.4486 9.41116 8.35073 9.24112 8.35073 9.05711V7.01899C8.35073 6.73714 8.57909 6.50887 8.86105 6.50887C9.14301 6.50887 9.37137 6.73714 9.37137 7.01899V8.76129L12.4566 10.5106C12.6174 10.6014 12.7152 10.7715 12.7152 10.9555V17.9899C12.7152 18.2717 12.4869 18.5 12.2049 18.5ZM8.06878 18.5C7.78682 18.5 7.55846 18.2717 7.55846 17.9899V13.9137L5.8341 12.9051C5.58943 12.763 5.50787 12.4485 5.65002 12.2063C5.79216 11.964 6.10441 11.8802 6.34908 12.0223L8.32743 13.1776C8.48355 13.2684 8.58142 13.4362 8.58142 13.6178V17.9876C8.58142 18.2694 8.35306 18.4977 8.0711 18.4977L8.06878 18.5Z" fill="#3875EC"/>
<path d="M16.4601 6.7207C16.4601 7.26109 16.022 7.69899 15.4814 7.69899C14.9408 7.69899 14.5027 7.26109 14.5027 6.7207C14.5027 6.1803 14.9408 5.7424 15.4814 5.7424C16.022 5.7424 16.4601 6.1803 16.4601 6.7207Z" fill="#3875EC"/>
<path d="M13.1887 2.00906C13.1887 2.54945 12.7506 2.98736 12.21 2.98736C11.6694 2.98736 11.2313 2.54945 11.2313 2.00906C11.2313 1.46867 11.6694 1.03076 12.21 1.03076C12.7506 1.03076 13.1887 1.46867 13.1887 2.00906Z" fill="#3875EC"/>
<path d="M9.78188 6.7207C9.78188 7.26109 9.34381 7.69899 8.8032 7.69899C8.26259 7.69899 7.8245 7.26109 7.8245 6.7207C7.8245 6.1803 8.26259 5.7424 8.8032 5.7424C9.34381 5.7424 9.78188 6.1803 9.78188 6.7207Z" fill="#3875EC"/>
<path d="M6.99028 12.4628C6.99028 13.0032 6.5522 13.4411 6.01159 13.4411C5.47098 13.4411 5.0329 13.0032 5.0329 12.4628C5.0329 11.9225 5.47098 11.4845 6.01159 11.4845C6.5522 11.4845 6.99028 11.9225 6.99028 12.4628Z" fill="#3875EC"/>
<path d="M18.986 13.3942C18.986 13.9346 18.5479 14.3725 18.0073 14.3725C17.4667 14.3725 17.0286 13.9346 17.0286 13.3942C17.0286 12.8538 17.4667 12.4159 18.0073 12.4159C18.5479 12.4159 18.986 12.8538 18.986 13.3942Z" fill="#3875EC"/>
</svg>
