<svg width="24" height="24" viewBox="0 0 24 24" fill="none" xmlns="http://www.w3.org/2000/svg">
<path d="M12 11.6504C9.63333 11.6504 7.625 11.3087 5.975 10.6254C4.325 9.94206 3.5 9.11706 3.5 8.15039C3.5 7.18372 4.325 6.35872 5.975 5.67539C7.625 4.99206 9.63333 4.65039 12 4.65039C14.3667 4.65039 16.375 4.99206 18.025 5.67539C19.675 6.35872 20.5 7.18372 20.5 8.15039C20.5 9.11706 19.675 9.94206 18.025 10.6254C16.375 11.3087 14.3667 11.6504 12 11.6504ZM12 15.6504C9.63333 15.6504 7.625 15.3087 5.975 14.6254C4.325 13.9421 3.5 13.1171 3.5 12.1504V11.5504C3.76667 11.9337 4.196 12.2837 4.788 12.6004C5.37933 12.9171 6.06667 13.1921 6.85 13.4254C7.63333 13.6587 8.471 13.8377 9.363 13.9624C10.2543 14.0877 11.1333 14.1504 12 14.1504C12.8667 14.1504 13.746 14.0877 14.638 13.9624C15.5293 13.8377 16.3667 13.6587 17.15 13.4254C17.9333 13.1921 18.6207 12.9171 19.212 12.6004C19.804 12.2837 20.2333 11.9337 20.5 11.5504V12.1504C20.5 13.1171 19.675 13.9421 18.025 14.6254C16.375 15.3087 14.3667 15.6504 12 15.6504ZM12 19.6504C9.63333 19.6504 7.625 19.3087 5.975 18.6254C4.325 17.9421 3.5 17.1171 3.5 16.1504V15.5504C3.76667 15.9337 4.196 16.2837 4.788 16.6004C5.37933 16.9171 6.06667 17.1921 6.85 17.4254C7.63333 17.6587 8.471 17.8377 9.363 17.9624C10.2543 18.0877 11.1333 18.1504 12 18.1504C12.8667 18.1504 13.746 18.0877 14.638 17.9624C15.5293 17.8377 16.3667 17.6587 17.15 17.4254C17.9333 17.1921 18.6207 16.9171 19.212 16.6004C19.804 16.2837 20.2333 15.9337 20.5 15.5504V16.1504C20.5 17.1171 19.675 17.9421 18.025 18.6254C16.375 19.3087 14.3667 19.6504 12 19.6504Z" fill="#076DF2"/>
</svg>
