<svg width="24" height="24" viewBox="0 0 24 24" fill="none" xmlns="http://www.w3.org/2000/svg">
<path d="M3.5 20.1504V7.15039H7.5V3.15039H16.5V11.1504H20.5V20.1504H13.5V16.1504H10.5V20.1504H3.5ZM4.5 19.1504H7.5V16.1504H4.5V19.1504ZM4.5 15.1504H7.5V12.1504H4.5V15.1504ZM4.5 11.1504H7.5V8.15039H4.5V11.1504ZM8.5 15.1504H11.5V12.1504H8.5V15.1504ZM8.5 11.1504H11.5V8.15039H8.5V11.1504ZM8.5 7.15039H11.5V4.15039H8.5V7.15039ZM12.5 15.1504H15.5V12.1504H12.5V15.1504ZM12.5 11.1504H15.5V8.15039H12.5V11.1504ZM12.5 7.15039H15.5V4.15039H12.5V7.15039ZM16.5 19.1504H19.5V16.1504H16.5V19.1504ZM16.5 15.1504H19.5V12.1504H16.5V15.1504Z" fill="#1578F8"/>
</svg>
