<svg width="24" height="24" viewBox="0 0 24 24" fill="none" xmlns="http://www.w3.org/2000/svg">
<path d="M15.333 5.826C15.333 5.891 15.333 5.956 15.313 6C15.313 6.022 15.293 6.065 15.293 6.087C15.2574 6.22412 15.1899 6.35089 15.096 6.457L12.45 9.37C12.375 9.45229 12.2835 9.51795 12.1816 9.56273C12.0796 9.60751 11.9694 9.63043 11.858 9.63C11.7465 9.63057 11.6361 9.60772 11.5339 9.56293C11.4318 9.51815 11.3401 9.45242 11.265 9.37C10.949 9.022 10.949 8.435 11.265 8.065L12.49 6.717H8.3C5.753 6.717 3.66 9 3.66 11.827C3.66 13.196 4.134 14.478 5.023 15.435C5.339 15.783 5.339 16.37 5.023 16.739C4.94794 16.8216 4.85637 16.8875 4.75422 16.9325C4.65207 16.9774 4.54161 17.0004 4.43 17C4.31847 17.0006 4.20806 16.9777 4.10591 16.9329C4.00376 16.8881 3.91215 16.8224 3.837 16.74C2.652 15.434 2 13.695 2 11.847C2 8.021 4.825 4.912 8.301 4.912H12.509L11.284 3.565C10.968 3.217 10.968 2.63 11.284 2.261C11.6 1.913 12.134 1.913 12.469 2.261L15.116 5.174C15.2087 5.28107 15.2763 5.40747 15.314 5.544C15.314 5.565 15.334 5.609 15.334 5.63V5.826H15.333ZM22 12.152C22 15.978 19.175 19.087 15.699 19.087H11.49L12.715 20.435C13.051 20.783 13.051 21.37 12.715 21.739C12.6399 21.8216 12.5484 21.8875 12.4462 21.9325C12.3441 21.9774 12.2336 22.0004 12.122 22C12.0109 21.9985 11.9013 21.9747 11.7996 21.93C11.698 21.8854 11.6063 21.8207 11.53 21.74L8.903 18.804C8.81019 18.697 8.74253 18.5706 8.705 18.434C8.705 18.413 8.685 18.37 8.685 18.348C8.665 18.283 8.665 18.239 8.665 18.174C8.665 18.109 8.665 18.044 8.685 18C8.685 17.978 8.705 17.935 8.705 17.913C8.74092 17.7758 8.80877 17.649 8.903 17.543L11.55 14.63C11.866 14.283 12.399 14.283 12.735 14.63C13.071 14.978 13.071 15.565 12.735 15.935L11.51 17.283H15.718C18.266 17.283 20.359 15 20.359 12.173C20.359 10.804 19.885 9.522 18.997 8.565C18.835 8.38651 18.7452 8.15407 18.7452 7.913C18.7452 7.67193 18.835 7.43949 18.997 7.261C19.313 6.913 19.846 6.913 20.182 7.261C21.348 8.543 22 10.283 22 12.152Z" fill="#0A0A0A"/>
</svg>
