<?xml version="1.0" encoding="utf-8"?>
<!-- Generator: Adobe Adobe Illustrator 28.6.0, SVG Export Plug-In . SVG Version: 6.00 Build 0)  -->
<svg version="1.1" id="Layer_1" xmlns="http://www.w3.org/2000/svg" xmlns:xlink="http://www.w3.org/1999/xlink" x="0px" y="0px"
	 viewBox="0 0 500 500" style="enable-background:new 0 0 500 500;" xml:space="preserve">
<style type="text/css">
	.st0{fill:#1578F8;}
</style>
<path class="st0" d="M250,250c12.8,0,23.7-4.4,32.8-13.1c9.1-8.7,13.6-19.2,13.6-31.4s-4.5-22.7-13.6-31.4
	c-9.1-8.7-20-13.1-32.8-13.1s-23.7,4.4-32.8,13.1c-9.1,8.7-13.6,19.2-13.6,31.4s4.5,22.7,13.6,31.4C226.3,245.6,237.2,250,250,250z
	 M233.6,189.8c4.5-4.4,10-6.5,16.4-6.5s11.8,2.2,16.4,6.5s6.8,9.6,6.8,15.7s-2.3,11.4-6.8,15.7s-10,6.5-16.4,6.5s-11.8-2.2-16.4-6.5
	s-6.8-9.6-6.8-15.7S229.1,194.1,233.6,189.8z"/>
<path class="st0" d="M337.8,290.5c-3.4-5.3-7.9-9.3-13.5-12.1c-12-5.7-24.2-10.1-36.6-12.9c-12.4-2.9-25-4.3-37.7-4.3
	s-25.3,1.4-37.7,4.3c-12.4,2.9-24.6,7.2-36.6,12.9c-5.6,2.8-10.1,6.8-13.5,12.1c-3.4,5.3-5.1,11.1-5.1,17.4V339h185.7v-31.2
	C342.9,301.5,341.2,295.8,337.8,290.5z M319.6,316.8H180.4v-7.1c-0.3-1.1-0.3-2.3,0.1-3.3c0.2-1.4,0.7-2.8,1.5-4
	c1.1-1.7,2.5-3,4.2-3.9c10.4-5,21-8.8,31.6-11.3c2.2-0.5,4.4-1,6.5-1.4c1-0.2,2-0.4,3-0.6c0.2,0,0.5-0.1,0.7-0.1
	c7.3-1.2,14.6-1.7,21.9-1.7c6.6,0,13.2,0.5,19.7,1.4c0.8-0.2,1.8-0.2,2.8,0.1c0.6,0.2,1.2,0.4,1.8,0.6c2.6,0.5,5.2,1,7.8,1.6
	c10.6,2.5,21.2,6.3,31.6,11.3c1.7,0.9,3.1,2.2,4.2,3.9c1.1,1.7,1.6,3.5,1.6,5.6V316.8z"/>
<path class="st0" d="M366.1,219.8c12.8,0,23.7-4.4,32.8-13.1c9.1-8.7,13.6-19.2,13.6-31.4s-4.5-22.7-13.6-31.4
	c-9.1-8.7-20-13.1-32.8-13.1c-12.8,0-23.7,4.4-32.8,13.1c-9.1,8.7-13.6,19.2-13.6,31.4s4.5,22.7,13.6,31.4
	C342.4,215.4,353.3,219.8,366.1,219.8z M349.7,159.5c4.5-4.4,10-6.5,16.4-6.5c6.4,0,11.8,2.2,16.4,6.5c4.5,4.4,6.8,9.6,6.8,15.7
	s-2.3,11.4-6.8,15.7c-4.5,4.4-10,6.5-16.4,6.5c-6.4,0-11.8-2.2-16.4-6.5s-6.8-9.6-6.8-15.7S345.1,163.9,349.7,159.5z"/>
<path class="st0" d="M453.9,260.2c-3.4-5.3-7.9-9.3-13.5-12.1c-12-5.7-24.2-10.1-36.6-12.9c-12.4-2.9-25-4.3-37.7-4.3
	c-12.8,0-25.3,1.4-37.7,4.3c-12.4,2.9-24.6,7.2-36.6,12.9c-5.6,2.8-10.1,6.8-13.5,12.1c-3.4,5.3-5.1,11.1-5.1,17.4v7.5
	c4.7,1.6,9.7,2.2,14.3,4c4.4,1.7,8.8,3.7,13.2,5.4c4.4,1.7,8,4.2,12,6.6c3,1.8,5.8,3.4,6.5,7c0,0.2,0.1,0.4,0.1,0.6h139.5v-31.2
	C458.9,271.3,457.2,265.5,453.9,260.2z M435.7,286.5H296.4v-8.9c0-2,0.5-3.9,1.6-5.6c1.1-1.7,2.5-3,4.2-3.9c10.4-5,21-8.8,31.6-11.3
	c10.6-2.5,21.4-3.8,32.2-3.8c10.8,0,21.6,1.3,32.2,3.8s21.2,6.3,31.6,11.3c1.7,0.9,3.1,2.2,4.2,3.9c1.1,1.7,1.6,3.5,1.6,5.6V286.5z"
	/>
<path class="st0" d="M221.7,260.2c-3.4-5.3-7.9-9.3-13.5-12.1c-12-5.7-24.2-10.1-36.6-12.9c-12.4-2.9-25-4.3-37.7-4.3
	c-12.8,0-25.3,1.4-37.7,4.3c-12.4,2.9-24.6,7.2-36.6,12.9c-5.6,2.8-10.1,6.8-13.5,12.1c-3.4,5.3-5.1,11.1-5.1,17.4v31.2h139.1
	c-0.2-1.7,0.4-3.6,2.3-4.7c5.8-3.6,11.2-8,17.6-10.6c5.2-2.1,10.7-3.6,16.2-5c3.5-1.3,7.1-2.5,10.6-3.1v-7.7
	C226.8,271.3,225.1,265.5,221.7,260.2z M203.6,286.5H64.3v-8.9c0-2,0.5-3.9,1.6-5.6c1.1-1.7,2.5-3,4.2-3.9c10.4-5,21-8.8,31.6-11.3
	s21.4-3.8,32.2-3.8c10.8,0,21.6,1.3,32.2,3.8s21.2,6.3,31.6,11.3c1.7,0.9,3.1,2.2,4.2,3.9c1.1,1.7,1.6,3.5,1.6,5.6V286.5z"/>
<path class="st0" d="M133.9,219.8c12.8,0,23.7-4.4,32.8-13.1c9.1-8.7,13.6-19.2,13.6-31.4s-4.5-22.7-13.6-31.4
	c-9.1-8.7-20-13.1-32.8-13.1c-12.8,0-23.7,4.4-32.8,13.1c-9.1,8.7-13.6,19.2-13.6,31.4s4.5,22.7,13.6,31.4
	C110.2,215.4,121.2,219.8,133.9,219.8z M117.5,159.5c4.5-4.4,10-6.5,16.4-6.5c6.4,0,11.8,2.2,16.4,6.5s6.8,9.6,6.8,15.7
	s-2.3,11.4-6.8,15.7s-10,6.5-16.4,6.5c-6.4,0-11.8-2.2-16.4-6.5c-4.5-4.4-6.8-9.6-6.8-15.7S113,163.9,117.5,159.5z"/>
</svg>
