<svg width="24" height="24" viewBox="0 0 24 24" fill="none" xmlns="http://www.w3.org/2000/svg">
<path d="M2 19V17.5H22V19H2ZM2.75 16V15.575C2.75 12.9917 3.4875 10.9083 4.9625 9.325C6.4375 7.74167 8.28333 6.71667 10.5 6.25V5.5C10.5 5.06667 10.6417 4.70833 10.925 4.425C11.2083 4.14167 11.5667 4 12 4C12.4333 4 12.7917 4.14167 13.075 4.425C13.3583 4.70833 13.5 5.06667 13.5 5.5V6.25C15.7167 6.71667 17.5625 7.74167 19.0375 9.325C20.5125 10.9083 21.25 12.9917 21.25 15.575V16H2.75ZM4.325 14.5H19.675C19.4417 12.3667 18.5875 10.6958 17.1125 9.4875C15.6375 8.27917 13.925 7.675 11.975 7.675C10.025 7.675 8.32083 8.27917 6.8625 9.4875C5.40417 10.6958 4.55833 12.3667 4.325 14.5Z" fill="#0A0A0A"/>
</svg>
