<svg width="24" height="24" viewBox="0 0 24 24" fill="none" xmlns="http://www.w3.org/2000/svg">
<path d="M12 20.9502C9.98333 20.3669 8.31233 19.1542 6.987 17.3122C5.66233 15.4709 5 13.4002 5 11.1002V5.7002L12 3.0752L19 5.7002V11.3502C18.85 11.3002 18.6833 11.2502 18.5 11.2002C18.3167 11.1502 18.15 11.1085 18 11.0752V6.3752L12 4.1502L6 6.3752V11.1002C6 12.0835 6.146 13.0295 6.438 13.9382C6.72933 14.8462 7.125 15.6795 7.625 16.4382C8.125 17.1962 8.721 17.8585 9.413 18.4252C10.1043 18.9919 10.8417 19.4252 11.625 19.7252L11.675 19.7002C11.7583 19.9002 11.8583 20.0962 11.975 20.2882C12.0917 20.4795 12.225 20.6585 12.375 20.8252C12.3083 20.8419 12.246 20.8629 12.188 20.8882C12.1293 20.9129 12.0667 20.9335 12 20.9502ZM17 21.0002C15.8833 21.0002 14.9377 20.6125 14.163 19.8372C13.3877 19.0625 13 18.1169 13 17.0002C13 15.8835 13.3877 14.9375 14.163 14.1622C14.9377 13.3875 15.8833 13.0002 17 13.0002C18.1167 13.0002 19.0623 13.3875 19.837 14.1622C20.6123 14.9375 21 15.8835 21 17.0002C21 18.1169 20.6123 19.0625 19.837 19.8372C19.0623 20.6125 18.1167 21.0002 17 21.0002ZM16.625 19.8752H17.375V17.3752H19.875V16.6252H17.375V14.1252H16.625V16.6252H14.125V17.3752H16.625V19.8752Z" fill="#076DF2"/>
</svg>
