<svg width="24" height="24" viewBox="0 0 24 24" fill="none" xmlns="http://www.w3.org/2000/svg">
<path d="M6 22.5C5.3 22.5 4.70833 22.2583 4.225 21.775C3.74167 21.2917 3.5 20.7 3.5 20C3.5 19.3 3.74167 18.7083 4.225 18.225C4.70833 17.7417 5.3 17.5 6 17.5C6.2 17.5 6.40433 17.529 6.613 17.587C6.821 17.6457 7.01667 17.725 7.2 17.825L9.75 14.65C9.38333 14.2667 9.13333 13.8373 9 13.362C8.86667 12.8873 8.84167 12.4083 8.925 11.925L5.2 10.7C4.98333 11.1 4.679 11.4167 4.287 11.65C3.89567 11.8833 3.46667 12 3 12C2.3 12 1.70833 11.7583 1.225 11.275C0.741667 10.7917 0.5 10.2 0.5 9.5C0.5 8.8 0.741667 8.20833 1.225 7.725C1.70833 7.24167 2.3 7 3 7C3.7 7 4.29167 7.24167 4.775 7.725C5.25833 8.20833 5.5 8.8 5.5 9.5C5.5 9.58333 5.496 9.65 5.488 9.7C5.47933 9.75 5.475 9.79167 5.475 9.825L9.2 11.125C9.41667 10.7083 9.729 10.3417 10.137 10.025C10.5457 9.70833 11.0167 9.50833 11.55 9.425V5.45C10.9167 5.33333 10.4167 5.03733 10.05 4.562C9.68333 4.08733 9.5 3.56667 9.5 3C9.5 2.3 9.74167 1.70833 10.225 1.225C10.7083 0.741667 11.3 0.5 12 0.5C12.7 0.5 13.2917 0.741667 13.775 1.225C14.2583 1.70833 14.5 2.3 14.5 3C14.5 3.56667 14.3167 4.08733 13.95 4.562C13.5833 5.03733 13.0833 5.33333 12.45 5.45V9.425C12.9833 9.50833 13.45 9.70833 13.85 10.025C14.25 10.3417 14.5667 10.7083 14.8 11.125L18.525 9.825C18.5083 9.775 18.5 9.72933 18.5 9.688V9.5C18.5 8.8 18.7417 8.20833 19.225 7.725C19.7083 7.24167 20.3 7 21 7C21.7 7 22.2917 7.24167 22.775 7.725C23.2583 8.20833 23.5 8.8 23.5 9.5C23.5 10.2 23.2583 10.7917 22.775 11.275C22.2917 11.7583 21.7 12 21 12C20.5333 12 20.104 11.8833 19.712 11.65C19.3207 11.4167 19.0167 11.1 18.8 10.7L15.075 11.925C15.1583 12.4083 15.1333 12.8873 15 13.362C14.8667 13.8373 14.6167 14.2583 14.25 14.625L16.8 17.8C16.9833 17.7167 17.179 17.6457 17.387 17.587C17.5957 17.529 17.8 17.5 18 17.5C18.7 17.5 19.2917 17.7417 19.775 18.225C20.2583 18.7083 20.5 19.3 20.5 20C20.5 20.7 20.2583 21.2917 19.775 21.775C19.2917 22.2583 18.7 22.5 18 22.5C17.3 22.5 16.7083 22.2583 16.225 21.775C15.7417 21.2917 15.5 20.7 15.5 20C15.5 19.7 15.5457 19.4127 15.637 19.138C15.729 18.8627 15.8917 18.6083 16.125 18.375L13.575 15.175C13.125 15.475 12.604 15.625 12.012 15.625C11.4207 15.625 10.8917 15.475 10.425 15.175L7.875 18.375C8.09167 18.6083 8.25 18.8627 8.35 19.138C8.45 19.4127 8.5 19.7 8.5 20C8.5 20.7 8.25833 21.2917 7.775 21.775C7.29167 22.2583 6.7 22.5 6 22.5ZM3 11C3.41667 11 3.77067 10.854 4.062 10.562C4.354 10.2707 4.5 9.91667 4.5 9.5C4.5 9.08333 4.354 8.72933 4.062 8.438C3.77067 8.146 3.41667 8 3 8C2.58333 8 2.22933 8.146 1.938 8.438C1.646 8.72933 1.5 9.08333 1.5 9.5C1.5 9.91667 1.646 10.2707 1.938 10.562C2.22933 10.854 2.58333 11 3 11ZM6 21.5C6.41667 21.5 6.77067 21.354 7.062 21.062C7.354 20.7707 7.5 20.4167 7.5 20C7.5 19.5833 7.354 19.2293 7.062 18.938C6.77067 18.646 6.41667 18.5 6 18.5C5.58333 18.5 5.22933 18.646 4.938 18.938C4.646 19.2293 4.5 19.5833 4.5 20C4.5 20.4167 4.646 20.7707 4.938 21.062C5.22933 21.354 5.58333 21.5 6 21.5ZM12 4.5C12.4167 4.5 12.7707 4.354 13.062 4.062C13.354 3.77067 13.5 3.41667 13.5 3C13.5 2.58333 13.354 2.22933 13.062 1.938C12.7707 1.646 12.4167 1.5 12 1.5C11.5833 1.5 11.2293 1.646 10.938 1.938C10.646 2.22933 10.5 2.58333 10.5 3C10.5 3.41667 10.646 3.77067 10.938 4.062C11.2293 4.354 11.5833 4.5 12 4.5ZM12 14.625C12.5833 14.625 13.0833 14.4167 13.5 14C13.9167 13.5833 14.125 13.0833 14.125 12.5C14.125 11.9167 13.9167 11.4167 13.5 11C13.0833 10.5833 12.5833 10.375 12 10.375C11.4167 10.375 10.9167 10.5833 10.5 11C10.0833 11.4167 9.875 11.9167 9.875 12.5C9.875 13.0833 10.0833 13.5833 10.5 14C10.9167 14.4167 11.4167 14.625 12 14.625ZM18 21.5C18.4167 21.5 18.7707 21.354 19.062 21.062C19.354 20.7707 19.5 20.4167 19.5 20C19.5 19.5833 19.354 19.2293 19.062 18.938C18.7707 18.646 18.4167 18.5 18 18.5C17.5833 18.5 17.2293 18.646 16.938 18.938C16.646 19.2293 16.5 19.5833 16.5 20C16.5 20.4167 16.646 20.7707 16.938 21.062C17.2293 21.354 17.5833 21.5 18 21.5ZM21 11C21.4167 11 21.7707 10.854 22.062 10.562C22.354 10.2707 22.5 9.91667 22.5 9.5C22.5 9.08333 22.354 8.72933 22.062 8.438C21.7707 8.146 21.4167 8 21 8C20.5833 8 20.2293 8.146 19.938 8.438C19.646 8.72933 19.5 9.08333 19.5 9.5C19.5 9.91667 19.646 10.2707 19.938 10.562C20.2293 10.854 20.5833 11 21 11Z" fill="#076DF2"/>
</svg>
