<svg width="24" height="24" viewBox="0 0 24 24" fill="none" xmlns="http://www.w3.org/2000/svg">
<path d="M10.95 3.45H3.6V10.8L13.05 20.25L20.4 12.9L10.95 3.45ZM21.9 11.55C22.2 12 22.5 12.45 22.5 13.05C22.5 13.65 22.2 14.1 21.9 14.55L14.55 21.9C14.1 22.35 13.65 22.5 13.05 22.5C12.45 22.5 12 22.2 11.55 21.9L2.1 12.45C1.8 12 1.5 11.55 1.5 10.95V3.6C1.5 2.4 2.4 1.5 3.6 1.5H10.95C11.55 1.5 12 1.8 12.45 2.1L21.9 11.55ZM8.55 7.2C8.55 7.95 7.95 8.4 7.35 8.4C6.6 8.55 6 7.95 6 7.2C6 6.6 6.6 6 7.2 6C7.95 6 8.55 6.6 8.55 7.2Z" fill="#0A0A0A"/>
</svg>
