<svg width="2500" height="2157" viewBox="0 0 2500 2157" fill="none" xmlns="http://www.w3.org/2000/svg">
<path d="M2498.24 498.981C2487.04 741.709 2317.12 1074.06 1988.51 1496.03C1648.69 1936.68 1361.15 2157 1125.89 2157C980.249 2157 857.021 2022.57 756.192 1753.7L554.543 1014.31C479.856 745.445 399.568 611.009 313.681 611.009C295.01 611.009 229.659 650.219 117.628 728.639L0 577.401C122.19 470.035 243.557 361.738 364.092 252.519C528.4 110.617 651.631 35.9324 733.785 28.4627C927.967 9.79171 1047.47 142.359 1092.28 426.163C1140.82 732.373 1174.43 922.821 1193.1 997.508C1249.12 1251.44 1310.73 1378.41 1377.95 1378.41C1430.23 1378.41 1508.65 1296.25 1613.21 1131.94C1717.77 967.633 1773.78 842.536 1781.25 756.648C1796.19 614.745 1740.17 543.795 1613.21 543.795C1553.46 543.795 1491.84 556.866 1428.36 583.005C1551.59 183.437 1786.85 -10.7452 2134.14 0.458353C2391.81 7.92806 2513.17 174.104 2498.23 498.985L2498.24 498.981Z" fill="white"/>
</svg>
