<svg width="24" height="24" viewBox="0 0 24 24" fill="none" xmlns="http://www.w3.org/2000/svg">
<path d="M5.34957 18.3C5.73957 18.69 5.72957 19.33 5.33957 19.71C4.94957 20.1 4.30957 20.09 3.92957 19.7C0.0195704 15.73 0.0195704 9.26999 3.92957 5.29999C4.31957 4.90999 4.94957 4.89999 5.33957 5.28999C5.72957 5.67999 5.73957 6.30999 5.34957 6.69999C2.20957 9.89999 2.20957 15.1 5.34957 18.3ZM20.0696 5.29999C19.6796 4.90999 19.0496 4.89999 18.6596 5.28999C18.2696 5.67999 18.2596 6.30999 18.6496 6.69999C21.7896 9.89999 21.7896 15.1 18.6496 18.3C18.2596 18.69 18.2696 19.33 18.6596 19.71C19.0496 20.1 19.6896 20.09 20.0696 19.7C23.9696 15.72 23.9696 9.26999 20.0696 5.29999ZM8.20957 8.20999C7.81957 7.81999 7.18957 7.80999 6.79957 8.19999C4.40957 10.54 4.42957 14.39 6.78957 16.79C7.17957 17.18 7.80957 17.19 8.19957 16.8C8.58957 16.41 8.59957 15.78 8.20957 15.39C6.59957 13.75 6.61957 11.18 8.19957 9.62999C8.58957 9.23999 8.59957 8.60999 8.20957 8.21999V8.20999ZM17.1996 8.19999C16.8096 7.80999 16.1696 7.81999 15.7896 8.20999C15.3996 8.59999 15.4096 9.23999 15.7996 9.61999C17.3696 11.16 17.3896 13.74 15.7896 15.38C15.3996 15.77 15.4096 16.41 15.7996 16.79C16.1896 17.18 16.8296 17.17 17.2096 16.78C19.5596 14.38 19.5796 10.54 17.1996 8.18999V8.19999ZM15.1996 12.5C15.1996 14.27 13.7796 15.74 11.9996 15.74C10.2196 15.74 8.79957 14.27 8.79957 12.5C8.79957 10.73 10.2196 9.25999 11.9996 9.25999C13.7796 9.25999 15.1996 10.73 15.1996 12.5ZM13.1996 12.5C13.1996 11.8 12.6496 11.26 11.9996 11.26C11.3496 11.26 10.7996 11.8 10.7996 12.5C10.7996 13.2 11.3496 13.74 11.9996 13.74C12.6496 13.74 13.1996 13.2 13.1996 12.5Z" fill="#0A0A0A"/>
</svg>
