<svg width="24" height="24" viewBox="0 0 24 24" fill="none" xmlns="http://www.w3.org/2000/svg">
<path d="M2 17.7252V16.2252C2.63333 16.2252 3.14583 16.0335 3.5375 15.6502C3.92917 15.2669 4.5 15.0752 5.25 15.0752C6 15.0752 6.58333 15.3002 7 15.7502C7.41667 16.2002 7.95 16.4252 8.6 16.4252C9.25 16.4252 9.79167 16.2002 10.225 15.7502C10.6583 15.3002 11.25 15.0752 12 15.0752C12.75 15.0752 13.3375 15.3002 13.7625 15.7502C14.1875 16.2002 14.725 16.4252 15.375 16.4252C16.025 16.4252 16.5625 16.2002 16.9875 15.7502C17.4125 15.3002 18 15.0752 18.75 15.0752C19.5 15.0752 20.0708 15.2669 20.4625 15.6502C20.8542 16.0335 21.3667 16.2252 22 16.2252V17.7252C21.2167 17.7252 20.6375 17.5335 20.2625 17.1502C19.8875 16.7669 19.3833 16.5752 18.75 16.5752C18.1167 16.5752 17.5833 16.8002 17.15 17.2502C16.7167 17.7002 16.125 17.9252 15.375 17.9252C14.625 17.9252 14.0333 17.7002 13.6 17.2502C13.1667 16.8002 12.6333 16.5752 12 16.5752C11.3667 16.5752 10.8292 16.8002 10.3875 17.2502C9.94583 17.7002 9.35 17.9252 8.6 17.9252C7.85 17.9252 7.2625 17.7002 6.8375 17.2502C6.4125 16.8002 5.88333 16.5752 5.25 16.5752C4.61667 16.5752 4.1125 16.7669 3.7375 17.1502C3.3625 17.5335 2.78333 17.7252 2 17.7252ZM2 13.7252V12.2252C2.63333 12.2252 3.14583 12.0335 3.5375 11.6502C3.92917 11.2669 4.5 11.0752 5.25 11.0752C6 11.0752 6.58333 11.3002 7 11.7502C7.41667 12.2002 7.95 12.4252 8.6 12.4252C9.25 12.4252 9.79167 12.2002 10.225 11.7502C10.6583 11.3002 11.25 11.0752 12 11.0752C12.75 11.0752 13.3375 11.3002 13.7625 11.7502C14.1875 12.2002 14.725 12.4252 15.375 12.4252C16.025 12.4252 16.5625 12.2002 16.9875 11.7502C17.4125 11.3002 18 11.0752 18.75 11.0752C19.5 11.0752 20.0708 11.2669 20.4625 11.6502C20.8542 12.0335 21.3667 12.2252 22 12.2252V13.7252C21.2167 13.7252 20.6375 13.5335 20.2625 13.1502C19.8875 12.7669 19.3833 12.5752 18.75 12.5752C18.1167 12.5752 17.5833 12.8002 17.15 13.2502C16.7167 13.7002 16.125 13.9252 15.375 13.9252C14.625 13.9252 14.0333 13.7002 13.6 13.2502C13.1667 12.8002 12.6333 12.5752 12 12.5752C11.3667 12.5752 10.8292 12.8002 10.3875 13.2502C9.94583 13.7002 9.35 13.9252 8.6 13.9252C7.85 13.9252 7.2625 13.7002 6.8375 13.2502C6.4125 12.8002 5.88333 12.5752 5.25 12.5752C4.61667 12.5752 4.1125 12.7669 3.7375 13.1502C3.3625 13.5335 2.78333 13.7252 2 13.7252ZM2 9.7252V8.2252C2.63333 8.2252 3.14583 8.03353 3.5375 7.6502C3.92917 7.26686 4.5 7.0752 5.25 7.0752C6 7.0752 6.58333 7.3002 7 7.7502C7.41667 8.2002 7.95 8.4252 8.6 8.4252C9.25 8.4252 9.79167 8.2002 10.225 7.7502C10.6583 7.3002 11.25 7.0752 12 7.0752C12.75 7.0752 13.3375 7.3002 13.7625 7.7502C14.1875 8.2002 14.725 8.4252 15.375 8.4252C16.025 8.4252 16.5625 8.2002 16.9875 7.7502C17.4125 7.3002 18 7.0752 18.75 7.0752C19.5 7.0752 20.0708 7.26686 20.4625 7.6502C20.8542 8.03353 21.3667 8.2252 22 8.2252V9.7252C21.2167 9.7252 20.6375 9.53353 20.2625 9.1502C19.8875 8.76686 19.3833 8.5752 18.75 8.5752C18.1167 8.5752 17.5833 8.8002 17.15 9.2502C16.7167 9.7002 16.125 9.9252 15.375 9.9252C14.625 9.9252 14.0333 9.7002 13.6 9.2502C13.1667 8.8002 12.6333 8.5752 12 8.5752C11.3667 8.5752 10.8292 8.8002 10.3875 9.2502C9.94583 9.7002 9.35 9.9252 8.6 9.9252C7.85 9.9252 7.2625 9.7002 6.8375 9.2502C6.4125 8.8002 5.88333 8.5752 5.25 8.5752C4.61667 8.5752 4.1125 8.76686 3.7375 9.1502C3.3625 9.53353 2.78333 9.7252 2 9.7252Z" fill="#0A0A0A"/>
</svg>
