<svg width="24" height="24" viewBox="0 0 24 24" fill="none" xmlns="http://www.w3.org/2000/svg">
<path d="M12.052 5.65C11.5507 5.65 11.1208 5.4715 10.7625 5.1145C10.4042 4.75748 10.225 4.32832 10.225 3.827C10.225 3.32567 10.4035 2.89583 10.7605 2.5375C11.1175 2.17917 11.5467 2 12.048 2C12.5493 2 12.9792 2.1785 13.3375 2.5355C13.6958 2.89252 13.875 3.32168 13.875 3.823C13.875 4.32433 13.6965 4.75417 13.3395 5.1125C12.9825 5.47083 12.5533 5.65 12.052 5.65ZM17.4 22V16.775H12.05C11.555 16.775 11.1312 16.5987 10.7787 16.2462C10.4262 15.8937 10.25 15.47 10.25 14.975V8.8C10.25 8.305 10.425 7.88125 10.775 7.52875C11.125 7.17625 11.5541 7 12.0622 7C12.4318 7 12.7513 7.075 13.0208 7.225C13.2903 7.375 13.6083 7.66667 13.975 8.1C14.675 8.91667 15.4417 9.6 16.275 10.15C17.1083 10.7 18.0167 10.9917 19 11.025V12.525C18.15 12.525 17.275 12.3167 16.375 11.9C15.475 11.4833 14.6083 10.925 13.775 10.225V14.8H17.1C17.595 14.8 18.0187 14.9763 18.3712 15.3288C18.7237 15.6813 18.9 16.105 18.9 16.6V22H17.4ZM9.9 22C8.51667 22 7.35417 21.5292 6.4125 20.5875C5.47083 19.6458 5 18.4833 5 17.1C5 15.9667 5.4125 14.9208 6.2375 13.9625C7.0625 13.0042 8.15 12.45 9.5 12.3V13.825C8.6 13.9083 7.87917 14.2792 7.3375 14.9375C6.79583 15.5958 6.525 16.3167 6.525 17.1C6.525 18.0667 6.84583 18.875 7.4875 19.525C8.12917 20.175 8.93333 20.5 9.9 20.5C10.6833 20.5 11.4083 20.2292 12.075 19.6875C12.7417 19.1458 13.1083 18.425 13.175 17.525H14.7C14.5667 18.8583 14.0167 19.9375 13.05 20.7625C12.0833 21.5875 11.0333 22 9.9 22Z" fill="#0A0A0A"/>
</svg>
