<svg width="24" height="24" viewBox="0 0 24 24" fill="none" xmlns="http://www.w3.org/2000/svg">
<path d="M5.8 15.075L4.225 13.5C5.39167 12.3333 6.6125 11.4583 7.8875 10.875C9.1625 10.2917 10.5333 10 12 10C13.4667 10 14.8375 10.2917 16.1125 10.875C17.3875 11.4583 18.6083 12.3333 19.775 13.5L18.2 15.075C17.1833 14.0583 16.1583 13.3333 15.125 12.9C14.0917 12.4667 13.05 12.25 12 12.25C10.95 12.25 9.90833 12.4667 8.875 12.9C7.84167 13.3333 6.81667 14.0583 5.8 15.075ZM1.575 10.85L0 9.275C1.55 7.69167 3.35417 6.41667 5.4125 5.45C7.47083 4.48333 9.66667 4 12 4C14.3333 4 16.5292 4.48333 18.5875 5.45C20.6458 6.41667 22.45 7.69167 24 9.275L22.425 10.85C20.9583 9.45 19.3542 8.33333 17.6125 7.5C15.8708 6.66667 14 6.25 12 6.25C10 6.25 8.12917 6.66667 6.3875 7.5C4.64583 8.33333 3.04167 9.45 1.575 10.85ZM12 21.275L15.7 17.55C15.2167 17.0667 14.6625 16.6875 14.0375 16.4125C13.4125 16.1375 12.7333 16 12 16C11.2667 16 10.5875 16.1375 9.9625 16.4125C9.3375 16.6875 8.78333 17.0667 8.3 17.55L12 21.275Z" fill="#0A0A0A"/>
</svg>
